<svg xmlns="http://www.w3.org/2000/svg" viewBox="0 0 800 400"><defs><linearGradient id="bg-gradient" x1="0%" x2="100%" y1="0%" y2="100%"><stop offset="0%" stop-color="#1a365d"/><stop offset="100%" stop-color="#2a4365"/></linearGradient></defs><rect width="800" height="400" fill="url(#bg-gradient)"/><text x="400" y="50" fill="#fff" font-family="Arial, sans-serif" font-size="28" font-weight="bold" text-anchor="middle">Cloud Provider Pricing Calculator</text><rect width="250" height="220" x="100" y="80" fill="#fff" fill-opacity=".1" rx="10" ry="10"/><text x="225" y="105" fill="#fff" font-family="Arial, sans-serif" font-size="18" font-weight="bold" text-anchor="middle">Configuration</text><text x="125" y="135" fill="#fff" font-family="Arial, sans-serif" font-size="14">CPU (cores):</text><rect width="200" height="10" x="125" y="145" fill="#333" opacity=".5" rx="5" ry="5"/><rect width="140" height="10" x="125" y="145" fill="#46E3B7" rx="5" ry="5"/><circle cx="265" cy="150" r="12" fill="#46E3B7" stroke="#fff" stroke-width="2"/><text x="325" y="150" fill="#fff" font-family="Arial, sans-serif" font-size="14" text-anchor="end">2.5</text><text x="125" y="185" fill="#fff" font-family="Arial, sans-serif" font-size="14">Memory (GB):</text><rect width="200" height="10" x="125" y="195" fill="#333" opacity=".5" rx="5" ry="5"/><rect width="160" height="10" x="125" y="195" fill="#79589F" rx="5" ry="5"/><circle cx="285" cy="200" r="12" fill="#79589F" stroke="#fff" stroke-width="2"/><text x="325" y="200" fill="#fff" font-family="Arial, sans-serif" font-size="14" text-anchor="end">4</text><text x="125" y="235" fill="#fff" font-family="Arial, sans-serif" font-size="14">Replicas:</text><rect width="200" height="10" x="125" y="245" fill="#333" opacity=".5" rx="5" ry="5"/><rect width="100" height="10" x="125" y="245" fill="#0080FF" rx="5" ry="5"/><circle cx="225" cy="250" r="12" fill="#0080FF" stroke="#fff" stroke-width="2"/><text x="325" y="250" fill="#fff" font-family="Arial, sans-serif" font-size="14" text-anchor="end">3</text><rect width="140" height="35" x="155" y="275" fill="#4299E1" rx="5" ry="5"/><text x="225" y="298" fill="#fff" font-family="Arial, sans-serif" font-size="16" font-weight="bold" text-anchor="middle">CALCULATE</text><rect width="320" height="220" x="380" y="80" fill="#fff" fill-opacity=".1" rx="10" ry="10"/><rect width="45" height="160" x="410" y="120" fill="#79589F"/><text x="432" y="295" fill="#fff" font-family="Arial, sans-serif" font-size="14" text-anchor="middle">Heroku</text><rect width="45" height="140" x="465" y="140" fill="#46E3B7"/><text x="487" y="295" fill="#fff" font-family="Arial, sans-serif" font-size="14" text-anchor="middle">Render</text><rect width="45" height="120" x="520" y="160" fill="#7B42BC"/><text x="542" y="295" fill="#fff" font-family="Arial, sans-serif" font-size="14" text-anchor="middle">Fly.io</text><rect width="45" height="100" x="575" y="180" fill="#0080FF"/><text x="597" y="295" fill="#fff" font-family="Arial, sans-serif" font-size="14" text-anchor="middle">DO</text><rect width="45" height="80" x="630" y="200" fill="#D50C2D"/><text x="652" y="295" fill="#fff" font-family="Arial, sans-serif" font-size="14" text-anchor="middle">Hetzner</text><text x="432" y="110" fill="#fff" font-family="Arial, sans-serif" font-size="12" text-anchor="middle">$125</text><text x="487" y="130" fill="#fff" font-family="Arial, sans-serif" font-size="12" text-anchor="middle">$95</text><text x="542" y="150" fill="#fff" font-family="Arial, sans-serif" font-size="12" text-anchor="middle">$75</text><text x="597" y="170" fill="#fff" font-family="Arial, sans-serif" font-size="12" text-anchor="middle">$55</text><text x="652" y="190" fill="#fff" font-family="Arial, sans-serif" font-size="12" text-anchor="middle">$35</text><text x="540" y="95" fill="#fff" font-family="Arial, sans-serif" font-size="14" text-anchor="middle">Monthly Cost ($)</text><text x="400" y="350" fill="#fff" font-family="Arial, sans-serif" font-size="18" text-anchor="middle">Compare costs based on your exact requirements</text></svg>